<svg xmlns="http://www.w3.org/2000/svg" xmlns:xlink="http://www.w3.org/1999/xlink" width="840" height="235.39000000000001"><rect width="840" height="235.39000000000001" rx="0" ry="0" class="a"></rect><svg height="195.39000000000001" viewBox="0 0 80 19.539" width="800" x="20" xmlns="http://www.w3.org/2000/svg" xmlns:xlink="http://www.w3.org/1999/xlink" y="20"><style>.a{fill:rgb(22,27,34)}.b{font-family:'Fira Code',Monaco,Consolas,Menlo,'Bitstream Vera Sans Mono','Powerline Symbols',monospace}.c{fill:transparent}.d{fill:rgb(117,113,94);white-space:pre}.e{fill:rgb(201,209,217);white-space:pre}.f{fill:rgb(102,194,205)}.g{fill:rgb(42,161,152);white-space:pre}</style><g font-family="&#x27;Fira Code&#x27;,Monaco,Consolas,Menlo,&#x27;Bitstream Vera Sans Mono&#x27;,&#x27;Powerline Symbols&#x27;,monospace" font-size="1.67" class="b"><defs><symbol id="a"><rect height="9" width="80" x="0" y="0" class="c"></rect></symbol></defs><rect height="19.539" width="80" class="a"></rect><svg x="0" y="0" width="80"><svg x="0"><use xlink:href="#a"></use><text font-size="1.67" x="0" y="1.67" class="d">#</text><text font-size="1.67" x="2.004" y="1.67" class="d">jsonc</text><text font-size="1.67" x="8.016" y="1.67" class="d">(19</text><text font-size="1.67" x="12.024" y="1.67" class="d">lines,</text><text font-size="1.67" x="19.037999999999997" y="1.67" class="d">2</text><text font-size="1.67" x="21.041999999999998" y="1.67" class="d">selected</text><text font-size="1.67" x="30.059999999999995" y="1.67" class="d">elements)</text><text font-size="1.67" x="2.004" y="3.8409999999999997" class="d">2</text><text font-size="1.67" x="6.012" y="3.8409999999999997" class="d">|</text><text font-size="1.67" x="8.016" y="3.8409999999999997" class="e">//</text><text font-size="1.67" x="11.021999999999998" y="3.8409999999999997" class="e">this</text><text font-size="1.67" x="16.032" y="3.8409999999999997" class="e">is</text><text font-size="1.67" x="19.037999999999997" y="3.8409999999999997" class="e">a</text><text font-size="1.67" x="21.041999999999998" y="3.8409999999999997" class="e">comment</text><text font-size="1.67" x="2.004" y="6.012" class="d">3</text><text font-size="1.67" x="6.012" y="6.012" class="d">|</text><text font-size="1.67" x="8.016" y="6.012" class="e">{</text><text font-size="1.67" x="2.004" y="8.183" class="d">4</text><text font-size="1.67" x="6.012" y="8.183" class="d">|</text><text font-size="1.67" x="10.02" y="8.183" class="e">&quot;a&quot;:</text><text font-size="1.67" x="15.029999999999998" y="8.183" class="e">{</text><rect height="2.171" width="1" x="0" y="8.684" class="f"></rect><text font-size="1.67" x="0" y="10.354" class="e">&gt;</text><text font-size="1.67" x="2.004" y="10.354" class="d">5</text><text font-size="1.67" x="6.012" y="10.354" class="d">|</text><text font-size="1.67" x="12.024" y="10.354" class="e">&quot;a1&quot;:</text><text font-size="1.67" x="18.035999999999998" y="10.354" class="e">[</text><text font-size="1.67" x="19.037999999999997" y="10.354" class="g">1</text><text font-size="1.67" x="20.04" y="10.354" class="e">,</text><text font-size="1.67" x="22.043999999999997" y="10.354" class="g">2</text><text font-size="1.67" x="23.045999999999996" y="10.354" class="e">,</text><text font-size="1.67" x="25.05" y="10.354" class="e">3],</text><text font-size="1.67" x="2.004" y="12.525" class="d">6</text><text font-size="1.67" x="6.012" y="12.525" class="d">|</text><text font-size="1.67" x="12.024" y="12.525" class="e">//</text><text font-size="1.67" x="15.029999999999998" y="12.525" class="e">comment</text><text font-size="1.67" x="2.004" y="14.696" class="d">7</text><text font-size="1.67" x="6.012" y="14.696" class="d">|</text><text font-size="1.67" x="12.024" y="14.696" class="e">&quot;a2&quot;:</text><text font-size="1.67" x="18.035999999999998" y="14.696" class="e">&quot;string&quot;</text><text font-size="1.67" x="2.004" y="16.866999999999997" class="d">8</text><text font-size="1.67" x="6.012" y="16.866999999999997" class="d">|</text><text font-size="1.67" x="10.02" y="16.866999999999997" class="e">},</text><text font-size="1.67" x="2.004" y="19.037999999999997" class="d">...</text></svg></svg></g></svg></svg>