<svg xmlns="http://www.w3.org/2000/svg" xmlns:xlink="http://www.w3.org/1999/xlink" width="840" height="322.23"><rect width="840" height="322.23" rx="0" ry="0" class="a"></rect><svg height="282.23" viewBox="0 0 80 28.223000000000003" width="800" x="20" xmlns="http://www.w3.org/2000/svg" xmlns:xlink="http://www.w3.org/1999/xlink" y="20"><style>.a{fill:rgb(247,247,247)}.b{font-family:'Fira Code',Monaco,Consolas,Menlo,'Bitstream Vera Sans Mono','Powerline Symbols',monospace}.c{fill:transparent}.d{fill:rgb(0,43,54);white-space:pre}.e{fill:rgb(101,123,131);white-space:pre}</style><g font-family="&#x27;Fira Code&#x27;,Monaco,Consolas,Menlo,&#x27;Bitstream Vera Sans Mono&#x27;,&#x27;Powerline Symbols&#x27;,monospace" font-size="1.67" class="b"><defs><symbol id="a"><rect height="13" width="80" x="0" y="0" class="c"></rect></symbol></defs><rect height="28.223000000000003" width="80" class="a"></rect><svg x="0" y="0" width="80"><svg x="0"><use xlink:href="#a"></use><text font-size="1.67" x="0" y="1.67" class="d">#</text><text font-size="1.67" x="2.004" y="1.67" class="d">jsonc</text><text font-size="1.67" x="8.016" y="1.67" class="d">(18</text><text font-size="1.67" x="12.024" y="1.67" class="d">lines)</text><text font-size="1.67" x="1.002" y="3.8409999999999997" class="d">1</text><text font-size="1.67" x="3.006" y="3.8409999999999997" class="d">|</text><text font-size="1.67" x="1.002" y="6.012" class="d">2</text><text font-size="1.67" x="3.006" y="6.012" class="d">|</text><text font-size="1.67" x="5.01" y="6.012" class="e">//</text><text font-size="1.67" x="8.016" y="6.012" class="e">this</text><text font-size="1.67" x="13.026" y="6.012" class="e">is</text><text font-size="1.67" x="16.032" y="6.012" class="e">a</text><text font-size="1.67" x="18.035999999999998" y="6.012" class="e">comment</text><text font-size="1.67" x="1.002" y="8.183" class="d">3</text><text font-size="1.67" x="3.006" y="8.183" class="d">|</text><text font-size="1.67" x="5.01" y="8.183" class="e">{</text><text font-size="1.67" x="1.002" y="10.354" class="d">4</text><text font-size="1.67" x="3.006" y="10.354" class="d">|</text><text font-size="1.67" x="7.013999999999999" y="10.354" class="e">&quot;a&quot;:</text><text font-size="1.67" x="12.024" y="10.354" class="e">{</text><text font-size="1.67" x="1.002" y="12.525" class="d">5</text><text font-size="1.67" x="3.006" y="12.525" class="d">|</text><text font-size="1.67" x="9.017999999999999" y="12.525" class="e">//</text><text font-size="1.67" x="12.024" y="12.525" class="e">comment</text><text font-size="1.67" x="1.002" y="14.696" class="d">6</text><text font-size="1.67" x="3.006" y="14.696" class="d">|</text><text font-size="1.67" x="9.017999999999999" y="14.696" class="e">&quot;a2&quot;:</text><text font-size="1.67" x="15.029999999999998" y="14.696" class="e">&quot;string&quot;</text><text font-size="1.67" x="1.002" y="16.866999999999997" class="d">7</text><text font-size="1.67" x="3.006" y="16.866999999999997" class="d">|</text><text font-size="1.67" x="7.013999999999999" y="16.866999999999997" class="e">},</text><text font-size="1.67" x="1.002" y="19.037999999999997" class="d">8</text><text font-size="1.67" x="3.006" y="19.037999999999997" class="d">|</text><text font-size="1.67" x="7.013999999999999" y="19.037999999999997" class="e">&quot;b&quot;:</text><text font-size="1.67" x="12.024" y="19.037999999999997" class="e">[</text><text font-size="1.67" x="1.002" y="21.209000000000003" class="d">9</text><text font-size="1.67" x="3.006" y="21.209000000000003" class="d">|</text><text font-size="1.67" x="9.017999999999999" y="21.209000000000003" class="e">{</text><text font-size="1.67" x="0" y="23.380000000000003" class="d">10</text><text font-size="1.67" x="3.006" y="23.380000000000003" class="d">|</text><text font-size="1.67" x="11.021999999999998" y="23.380000000000003" class="e">&quot;b11&quot;:</text><text font-size="1.67" x="18.035999999999998" y="23.380000000000003" class="e">true,</text><text font-size="1.67" x="0" y="25.550999999999995" class="d">ℹ</text><text font-size="1.67" x="2.004" y="25.550999999999995" class="d">8</text><text font-size="1.67" x="4.008" y="25.550999999999995" class="d">more</text><text font-size="1.67" x="9.017999999999999" y="25.550999999999995" class="d">lines</text><text font-size="1.67" x="0" y="27.722" class="d">ℹ</text><text font-size="1.67" x="2.004" y="27.722" class="d">Use</text><text font-size="1.67" x="6.012" y="27.722" class="d">`print(n</text><text font-size="1.67" x="15.029999999999998" y="27.722" class="d">=</text><text font-size="1.67" x="17.034" y="27.722" class="d">...)`</text><text font-size="1.67" x="23.045999999999996" y="27.722" class="d">to</text><text font-size="1.67" x="26.052" y="27.722" class="d">see</text><text font-size="1.67" x="30.059999999999995" y="27.722" class="d">more</text><text font-size="1.67" x="35.06999999999999" y="27.722" class="d">lines</text></svg></svg></g></svg></svg>